<?xml version="1.0" standalone="no"?>
<!DOCTYPE svg PUBLIC "-//W3C//DTD SVG 20010904//EN"
 "http://www.w3.org/TR/2001/REC-SVG-20010904/DTD/svg10.dtd">
<svg version="1.0" xmlns="http://www.w3.org/2000/svg"
 width="730.000000pt" height="1280.000000pt" viewBox="0 0 730.000000 1280.000000"
 preserveAspectRatio="xMidYMid meet">
<metadata>
Created by potrace 1.15, written by Peter Selinger 2001-2017
</metadata>
<g transform="translate(0.000000,1280.000000) scale(0.100000,-0.100000)"
fill="#fff" stroke="green" stroke-width="4">
<path d="M3480 12709 c-426 -367 -840 -832 -1187 -1334 -1079 -1562 -1549
-3432 -1363 -5429 35 -369 77 -658 158 -1078 l9 -46 -69 -16 c-317 -72 -621
-358 -787 -742 -114 -264 -177 -529 -223 -944 -16 -147 -16 -816 0 -1000 31
-347 75 -706 117 -945 9 -49 25 -142 36 -205 26 -152 100 -514 147 -720 l37
-165 60 3 c118 6 115 4 115 83 0 38 5 137 10 221 6 84 15 225 21 313 72 1109
243 2017 460 2449 125 248 257 348 398 301 28 -9 51 -18 51 -19 0 -6 113 -326
158 -446 104 -281 243 -621 379 -925 l50 -110 195 -5 195 -5 -205 -923 c-160
-720 -203 -929 -196 -949 5 -14 21 -35 35 -45 25 -19 61 -19 1553 -20 1461 0
1528 1 1558 19 17 10 40 30 51 45 l20 27 -202 903 c-111 497 -205 913 -208
926 l-5 22 194 0 194 0 91 208 c176 398 335 801 449 1136 45 132 49 139 83
154 48 22 137 21 180 -2 159 -84 310 -371 424 -806 126 -478 228 -1197 276
-1935 6 -88 15 -229 21 -313 5 -84 10 -183 10 -221 0 -79 -3 -77 115 -83 l60
-3 37 165 c47 206 121 568 147 720 11 63 27 156 36 205 42 239 86 598 117 945
16 184 16 853 0 1000 -78 704 -244 1130 -553 1425 -142 136 -300 225 -458 261
-39 9 -71 21 -71 28 0 6 5 31 11 56 31 136 103 591 128 815 49 431 56 559 56
1085 0 501 -3 572 -41 930 -175 1639 -841 3157 -1921 4376 -159 181 -468 486
-618 612 l-110 92 -60 -1 -60 0 -105 -90z m-396 -10876 c36 -28 80 -29 106 -3
17 17 33 20 120 20 l100 0 0 -75 0 -75 -421 0 -421 0 5 23 c3 12 11 48 18 81
l13 58 226 -3 c216 -4 227 -5 254 -26z m1488 7 l126 0 12 -52 c6 -29 13 -63
16 -75 l6 -23 -421 0 -421 0 0 82 0 81 278 -6 c152 -4 334 -7 404 -7z m-1167
-365 l0 -50 -92 0 c-51 0 -253 1 -449 3 l-356 2 7 33 c15 74 -33 68 453 65
l437 -3 0 -50z m1369 28 c3 -10 8 -36 12 -57 l7 -39 -204 6 c-112 4 -315 7
-451 7 l-248 0 0 50 0 50 439 0 c410 0 440 -1 445 -17z m-1671 -250 l307 -6 0
-29 0 -28 -475 0 c-462 0 -475 1 -475 19 0 51 2 51 174 51 88 0 299 -3 469 -7z
m1729 -18 c4 -5 8 -18 8 -27 0 -17 -29 -18 -475 -18 l-475 0 0 31 0 31 468 -3
c295 -3 470 -8 474 -14z m-1424 -252 l-3 -38 -97 0 c-54 0 -280 1 -503 3
l-405 2 6 28 c4 15 9 30 11 35 2 4 227 7 499 7 l495 0 -3 -37z m1482 -4 c6
-23 10 -42 8 -44 -2 -1 -229 0 -505 3 l-503 5 0 38 0 39 495 0 494 0 11 -41z
m-1817 -206 c271 -5 337 -9 337 -20 0 -11 -93 -13 -525 -13 -518 0 -525 0
-525 20 0 19 7 20 188 20 103 0 339 -3 525 -7z m1565 -10 c238 -5 302 -9 306
-20 4 -11 -86 -13 -524 -13 -523 0 -530 0 -530 20 0 19 7 20 223 20 123 0 359
-3 525 -7z m-1233 -213 c0 -13 -66 -15 -545 -11 -300 2 -547 5 -549 7 -1 1 0
8 4 13 4 8 170 10 548 9 474 -3 542 -5 542 -18z m1582 -5 c3 -9 4 -18 2 -20
-3 -2 -251 -1 -552 2 -448 5 -547 9 -547 20 0 11 96 13 545 13 483 0 546 -2
552 -15z"/>
</g>
</svg>
